<?xml version="1.0" encoding="utf-8"?><!-- Uploaded to: SVG Repo, www.svgrepo.com, Generator: SVG Repo Mixer Tools -->
<svg viewBox="0 0 32 32" xmlns="http://www.w3.org/2000/svg"><path fill="none" stroke="currentColor" stroke-width="2" stroke-linecap="round" stroke-linejoin="round" stroke-miterlimit="10" d="M25,18H7c-1.1,0-2-0.9-2-2v0c0-1.1,0.9-2,2-2h18c1.1,0,2,0.9,2,2v0C27,17.1,26.1,18,25,18z"/><path fill="none" stroke="currentColor" stroke-width="2" stroke-linecap="round" stroke-linejoin="round" stroke-miterlimit="10" d="M25,18c0,5-4,9-9,9s-9-4-9-9"/><polyline fill="none" stroke="currentColor" stroke-width="2" stroke-linecap="round" stroke-linejoin="round" stroke-miterlimit="10" points="21.7,25 23,31 9,31 10.3,25"/><path fill="none" stroke="currentColor" stroke-width="2" stroke-linecap="round" stroke-linejoin="round" stroke-miterlimit="10" d="M24,14H8V5c0-2.2,1.8-4,4-4h8c2.2,0,4,1.8,4,4V14z"/><line fill="none" stroke="currentColor" stroke-width="2" stroke-linecap="round" stroke-linejoin="round" stroke-miterlimit="10" x1="12" y1="5" x2="14" y2="5"/></svg>
